<svg xmlns="http://www.w3.org/2000/svg" xmlns:xlink="http://www.w3.org/1999/xlink" id="Calque_1" width="45" height="45" x="0" y="0" enable-background="new 0 0 45 45" version="1.1" viewBox="0 0 45 45" xml:space="preserve"><polygon fill="#333" points="25.484 5.376 22.5 26.414 19.467 5.376 18.439 5.376 17.559 5.376 17.021 5.376 15.65 5.376 15.65 5.474 15.65 5.621 15.65 39.379 15.65 39.478 15.65 39.624 17.021 39.624 18.439 39.624 18.439 39.478 18.439 39.379 18.439 11.883 21.229 32.578 23.723 32.578 26.561 11.834 26.561 39.379 26.561 39.478 26.561 39.624 27.979 39.624 29.35 39.624 29.35 39.526 29.35 39.379 29.35 5.621 29.35 5.474 29.35 5.376 27.979 5.376 27.441 5.376 26.561 5.376"/></svg>