<svg xmlns="http://www.w3.org/2000/svg" xmlns:xlink="http://www.w3.org/1999/xlink" id="Calque_1" width="45" height="45" x="0" y="0" enable-background="new 0 0 45 45" version="1.1" viewBox="0 0 45 45" xml:space="preserve"><path fill="#333" d="M33.834,32.834c-0.834,0-1.301-0.168-2.934-2.334l-6.012-7.952c3.312-0.673,5.445-2.52,5.445-5.381	c0-4-2.5-5.667-8.167-5.667h-3.333H15.5H13v0.667h0.667c1.333,0,1.833,0.5,1.833,2v16.667c0,1.5-0.5,2-1.833,2H13V33.5h2.5h3.333	h2.5v-0.666h-0.667c-1.333,0-1.833-0.5-1.833-2v-8h2.267l5.233,6.966c2.133,2.866,3.166,3.7,6.5,3.7H34v-0.666H33.834z M18.833,12.333h2.833c3.667,0,5.167,1.167,5.167,4.833c0,3.133-2,4.833-5.167,4.833h-2.833V12.333z"/></svg>