<svg xmlns="http://www.w3.org/2000/svg" xmlns:xlink="http://www.w3.org/1999/xlink" id="Calque_1" width="45" height="45" x="0" y="0" enable-background="new 0 0 45 45" version="1.1" viewBox="0 0 45 45" xml:space="preserve"><path fill="#333" d="M27.23,32.281v-6.159h-2.315v6.308c0,1.922-0.985,3.203-2.415,3.203c-1.429,0-2.414-1.281-2.414-3.203	V12.374c0-1.971,0.985-3.252,2.414-3.252c1.43,0,2.415,1.331,2.415,3.302v6.455h2.315v-6.455c0-2.957-1.576-4.977-4.09-5.273V5.376	h-1.281V7.15c-2.514,0.296-4.09,2.316-4.09,5.273v19.858c0,3.006,1.576,5.027,4.09,5.322v2.021h1.281v-2.021	C25.654,37.309,27.23,35.238,27.23,32.281z"/></svg>