<svg xmlns="http://www.w3.org/2000/svg" xmlns:xlink="http://www.w3.org/1999/xlink" id="Calque_1" width="45" height="45" x="0" y="0" enable-background="new 0 0 45 45" version="1.1" viewBox="0 0 45 45" xml:space="preserve"><path fill="#333" d="M26.855,14.621v11.647c-1.175,2.74-2.985,4.453-4.747,4.453c-4.453,0-7.438-3.182-7.438-7.928	c0-5.677,2.887-9.445,7.193-9.445C23.087,13.349,24.947,13.838,26.855,14.621z M27.345,33.511h1.713h1.713h3.425V32.63l-3.425-1.566	V11h-0.489l-2.007,0.881C26.61,11.343,24.457,11,22.5,11c-6.998,0-11.695,5.236-11.695,13.017c0,6.02,3.426,9.983,8.515,9.983	c3.132,0,6.068-2.447,7.634-6.215L27.345,33.511z"/></svg>