<svg xmlns="http://www.w3.org/2000/svg" xmlns:xlink="http://www.w3.org/1999/xlink" id="Calque_1" width="45" height="45" x="0" y="0" enable-background="new 0 0 45 45" version="1.1" viewBox="0 0 45 45" xml:space="preserve"><polygon fill="#333" points="25.46 14.085 24.971 14.085 22.721 23.723 22.721 28.909 19.54 28.909 26.243 5.376 23.895 5.376 16.947 29.105 16.947 31.355 19.296 31.355 22.721 31.355 22.721 39.379 22.721 39.478 22.721 39.624 24.09 39.624 25.46 39.624 25.46 39.478 25.46 39.379 25.46 31.355 27.809 31.355 27.809 31.404 27.955 31.404 28.053 31.404 28.053 31.355 28.053 30.133 28.053 28.909 27.955 28.909 27.809 28.909 25.46 28.909 25.46 23.723"/></svg>