<svg xmlns="http://www.w3.org/2000/svg" xmlns:xlink="http://www.w3.org/1999/xlink" id="Calque_1" width="45" height="45" x="0" y="0" enable-background="new 0 0 45 45" version="1.1" viewBox="0 0 45 45" xml:space="preserve"><path fill="#333" d="M15.55,11.5v22.051h3.341V11.5H15.55z M21.899,22.525c2.171,6.015,4.51,9.188,9.689,12.529l0.367-0.434	c-2.673-3.008-4.377-5.914-6.381-12.596L21.899,22.525z M13.045,11.5v0.668h0.668c1.336,0,1.837,0.501,1.837,2.004V11.5H13.045z M13.045,33.551h2.505v-2.672c0,1.503-0.501,2.004-1.837,2.004h-0.668V33.551z M21.397,33.551v-0.668h-0.668	c-1.336,0-1.837-0.501-1.837-2.004v2.672H21.397z M26.91,17.18c0,3.141-2.004,4.845-5.179,4.845h-2.84v0.835h3.007	c5.011,0,8.519-2.005,8.519-5.681c0-4.009-2.505-5.68-8.186-5.68h-3.341v0.835h2.84C25.406,12.335,26.91,13.504,26.91,17.18z"/></svg>