<svg xmlns="http://www.w3.org/2000/svg" xmlns:xlink="http://www.w3.org/1999/xlink" id="Calque_1" width="45" height="45" x="0" y="0" enable-background="new 0 0 45 45" version="1.1" viewBox="0 0 45 45" xml:space="preserve"><path fill="#333" d="M25.064,38.118c0.611,0.612,1.412,1.13,2.352,1.506l0.141-0.094c-0.564-0.988-0.939-3.105-0.939-5.363	v-23.71c0-3.058-1.836-5.081-4.611-5.081c-2.729,0-4.563,2.023-4.563,5.081v23.71c0,3.059,1.835,5.081,4.563,5.081	C23.23,39.248,24.312,38.824,25.064,38.118z M23.936,9.939v24.745c0,1.317-0.754,2.211-1.929,2.211c-1.13,0-1.882-0.894-1.882-2.211	V9.939c0-1.317,0.752-2.211,1.882-2.211C23.182,7.728,23.936,8.622,23.936,9.939z"/></svg>