<svg xmlns="http://www.w3.org/2000/svg" xmlns:xlink="http://www.w3.org/1999/xlink" id="Calque_1" width="16" height="16" x="0" y="0" enable-background="new 0 0 16 16" version="1.1" viewBox="0 0 16 16" xml:space="preserve"><g><path fill="#666" d="M10.674,14.842h-8.54C0.958,14.842,0,13.886,0,12.707V4.168c0-1.177,0.958-2.135,2.134-2.135h8.54 c1.179,0,2.135,0.958,2.135,2.135v8.539C12.811,13.886,11.853,14.842,10.674,14.842z M2.134,3.456c-0.392,0-0.711,0.32-0.711,0.712 v8.539c0,0.393,0.319,0.713,0.711,0.713h8.54c0.393,0,0.713-0.32,0.713-0.713V4.168c0-0.393-0.32-0.712-0.713-0.712H2.134z"/></g></svg>