<svg xmlns="http://www.w3.org/2000/svg" xmlns:xlink="http://www.w3.org/1999/xlink" id="Calque_1" x="0" y="0" version="1.1" viewBox="0 0 22 22" xml:space="preserve" style="enable-background:new 0 0 22 22"><style type="text/css">.st0{fill:#b3b3b3}</style><path d="M4.4,13.4c0,1.9,1.7,3.7,4.6,4.7c0,0,0.1,0,0.1,0c0.1,0,0.2-0.1,0.3-0.2c0.1-0.1,0-0.3-0.1-0.4	C7.8,16.9,7,16,7,15c0-1.7,2.3-3.1,5.5-3.3l0,1.6c0,0.2,0.1,0.4,0.3,0.5c0,0,0.1,0,0.1,0c0,0,0.1,0,0.1,0l0,0c0.1,0,0.2,0,0.3-0.1	l4-3.5c0.1-0.1,0.2-0.3,0.2-0.4s-0.1-0.3-0.2-0.4l-4-3.5c-0.2-0.1-0.4-0.1-0.5,0c0,0-0.1,0.1-0.1,0.1c0,0,0,0,0,0c0,0,0,0.1-0.1,0.1	c0,0,0,0,0,0c0,0,0,0.1,0,0.1c0,0,0,0,0,0c0,0,0,0.1,0,0.1v0.8v0.8c0,0,0,0,0,0C7.8,8.4,4.4,10.7,4.4,13.4z" class="st0"/></svg>