<svg xmlns="http://www.w3.org/2000/svg" xmlns:xlink="http://www.w3.org/1999/xlink" id="Calque_1" x="0" y="0" version="1.1" viewBox="0 0 8.1 82.1" xml:space="preserve" style="enable-background:new 0 0 8.1 82.1"><style type="text/css">.st0{fill:#4f4f4f}.st1{fill:#313030}.st2{fill:none;stroke:#fff;stroke-miterlimit:10}</style><path id="XMLID_73_" d="M7.2,23.4v54.8c0,0.4-0.3,0.8-0.8,0.8H1.7c-0.4,0-0.8-0.3-0.8-0.8V23.4c0-0.4,0.3-0.8,0.8-0.8	h4.8C6.9,22.6,7.2,23,7.2,23.4z" class="st0"/><path id="XMLID_76_" d="M8.1,1.2v28.9c0,0.7-0.5,1.2-1.2,1.2H1.2c-0.7,0-1.2-0.5-1.2-1.2L0,1.2C0,0.5,0.5,0,1.2,0l5.7,0	C7.6,0,8.1,0.5,8.1,1.2z" class="st1"/><path id="XMLID_75_" d="M6.3,77.2v4.2c0,0.4-0.3,0.7-0.7,0.7h-3c-0.4,0-0.7-0.3-0.7-0.7v-4.2c0-0.4,0.3-0.7,0.7-0.7h3	C6,76.4,6.3,76.8,6.3,77.2z" class="st0"/><line id="XMLID_77_" x1=".9" x2="7.2" y1="40.2" y2="40.2" class="st2"/></svg>