<svg xmlns="http://www.w3.org/2000/svg" xmlns:xlink="http://www.w3.org/1999/xlink" id="Calque_1" width="368.5" height="283.46" x="0" y="0" enable-background="new 0 0 368.5 283.46" version="1.1" viewBox="0 0 368.5 283.46" xml:space="preserve"><g><g><g opacity=".44"><g><g><defs><rect id="SVGID_1_" width="290.02" height="244.463" x="37.202" y="17.15"/></defs><clipPath id="SVGID_2_"><use overflow="visible" xlink:href="#SVGID_1_"/></clipPath><path fill="#F6F6F6" d="M327.22,139.383c0,67.505-64.923,122.231-145.007,122.231 c-80.088,0-145.011-54.726-145.011-122.231c0-67.507,64.923-122.232,145.011-122.232 C262.297,17.15,327.22,71.875,327.22,139.383" clip-path="url(#SVGID_2_)"/></g></g></g><g opacity=".12"><g><g><defs><rect id="SVGID_3_" width="215.903" height="192.001" x="74.26" y="65.125"/></defs><clipPath id="SVGID_4_"><use overflow="visible" xlink:href="#SVGID_3_"/></clipPath><path fill="#D3D3D2" d="M290.16,161.125c0,53.021-48.329,95.999-107.95,95.999 c-59.62,0-107.952-42.979-107.952-95.999c0-53.019,48.332-96,107.952-96C241.831,65.125,290.16,108.105,290.16,161.125" clip-path="url(#SVGID_4_)"/></g></g></g><path fill="none" stroke="#D1A617" stroke-linejoin="round" stroke-miterlimit="10" stroke-width="6.956" d="M218.927,117.739 h28.114c0,0,0.02,0,0.02,14.97c0,12.839-10.081,28.675-28.134,28.675V117.739z"/><path fill="none" stroke="#FED52A" stroke-linejoin="round" stroke-miterlimit="10" stroke-width="6.956" d="M218.927,114.956 h28.114c0,0,0.02,0,0.02,14.969c0,12.84-10.081,28.677-28.134,28.677V114.956z"/><path fill="none" stroke="#D1A617" stroke-linejoin="round" stroke-miterlimit="10" stroke-width="6.956" d="M145.201,117.739 h-28.114c0,0-0.019,0-0.019,14.97c0,12.839,10.081,28.675,28.133,28.675V117.739z"/><path fill="none" stroke="#FED52A" stroke-linejoin="round" stroke-miterlimit="10" stroke-width="6.956" d="M145.201,115.091 h-28.114c0,0-0.019,0-0.019,14.97c0,12.84,10.081,28.673,28.133,28.673V115.091z"/><rect width="16.664" height="39.126" x="173.859" y="175.683" fill="#FED52A"/><path fill="#F9C20F" d="M210.338,214.809h-56.293c-2.418,0-4.378,1.959-4.378,4.377v2.705c0,2.417,1.96,4.379,4.378,4.379h56.293 c2.418,0,4.379-1.962,4.379-4.379v-2.705C214.718,216.768,212.759,214.809,210.338,214.809"/><path fill="#D1A617" d="M216.209,222.46h-68.466c-2.581,0-4.673,2.094-4.673,4.674v6.2c0,0.435,0.352,0.787,0.789,0.787h76.236 c0.435,0,0.788-0.353,0.788-0.787v-6.2C220.886,224.554,218.794,222.46,216.209,222.46"/><path fill="#FED52A" d="M144.737,99.334c-1.165,0-2.109,0.978-2.109,2.185v47.479c-0.007,0.346-0.022,0.685-0.022,1.03 c0,24.558,17.724,44.467,39.589,44.467s39.59-19.909,39.59-44.467v-48.51c0-1.207-0.947-2.185-2.11-2.185H144.737L144.737,99.334z"/><path fill="none" stroke="#D1A617" stroke-linecap="round" stroke-linejoin="round" stroke-miterlimit="10" stroke-width="2.782" d="M144.737,99.334c-1.165,0-2.109,0.978-2.109,2.185v47.479c-0.007,0.346-0.022,0.685-0.022,1.03 c0,24.558,17.724,44.467,39.589,44.467s39.59-19.909,39.59-44.467v-48.51c0-1.207-0.947-2.185-2.11-2.185H144.737L144.737,99.334z"/><polygon fill="#FFF" points="189.16 143.813 200.798 135.352 186.399 135.352 181.949 121.697 177.548 135.352 163.626 135.352 174.877 143.638 170.431 157.429 182.092 148.953 193.597 157.429"/><polygon fill="none" stroke="#FFF" stroke-linecap="round" stroke-linejoin="round" stroke-miterlimit="10" stroke-width="2.782" points="189.16 143.813 200.798 135.352 186.399 135.352 181.949 121.697 177.548 135.352 163.626 135.352 174.877 143.638 170.431 157.429 182.092 148.953 193.597 157.429"/><path fill="#D1A617" d="M182.211,186.637c-15.159,0-29.562-6.973-35.171-19.747c5.395,15.337,19.103,26.237,35.171,26.237 c16.068,0,29.776-10.9,35.17-26.237C211.558,180.453,197.371,186.637,182.211,186.637"/><line x1="114.945" x2="249.009" y1="234.019" y2="234.019" fill="none" stroke="#937816" stroke-linecap="round" stroke-linejoin="round" stroke-miterlimit="10" stroke-width="2.782"/><line x1="38.625" x2="38.625" y1="193.525" y2="219.088" fill="none" stroke="#FED52A" stroke-linecap="round" stroke-linejoin="round" stroke-miterlimit="10" stroke-width="2.782" class="spark spark-bottomleft spark-bottomleft-2"/><line x1="51.405" x2="25.842" y1="206.307" y2="206.307" fill="none" stroke="#FED52A" stroke-linecap="round" stroke-linejoin="round" stroke-miterlimit="10" stroke-width="2.782" class="spark spark-bottomleft spark-bottomleft-2"/><line x1="69.651" x2="69.651" y1="189.374" y2="202.155" fill="none" stroke="#FED52A" stroke-linecap="round" stroke-linejoin="round" stroke-miterlimit="10" stroke-width="2.782" class="spark spark-bottomleft spark-bottomleft-1"/><line x1="76.042" x2="63.259" y1="195.763" y2="195.763" fill="none" stroke="#FED52A" stroke-linecap="round" stroke-linejoin="round" stroke-miterlimit="10" stroke-width="2.782" class="spark spark-bottomleft spark-bottomleft-1"/><line x1="344.428" x2="344.428" y1="48.083" y2="65.125" fill="none" stroke="#BCA35C" stroke-linecap="round" stroke-linejoin="round" stroke-miterlimit="10" stroke-width="2.782" class="spark spark-topright spark-topright-3"/><line x1="335.679" x2="353.175" y1="56.604" y2="56.604" fill="none" stroke="#BCA35C" stroke-linecap="round" stroke-linejoin="round" stroke-miterlimit="10" stroke-width="2.782" class="spark spark-topright spark-topright-3"/><line x1="297.228" x2="297.228" y1="56.139" y2="81.702" fill="none" stroke="#BCA35C" stroke-linecap="round" stroke-linejoin="round" stroke-miterlimit="10" stroke-width="2.782" class="spark spark-topright spark-topright-2"/><line x1="284.105" x2="310.351" y1="68.919" y2="68.919" fill="none" stroke="#BCA35C" stroke-linecap="round" stroke-linejoin="round" stroke-miterlimit="10" stroke-width="2.782" class="spark spark-topright spark-topright-2"/><line x1="325.462" x2="325.462" y1="106.152" y2="118.932" fill="none" stroke="#BCA35C" stroke-linecap="round" stroke-linejoin="round" stroke-miterlimit="10" stroke-width="2.782" class="spark spark-topright spark-topright-1"/><line x1="318.899" x2="332.021" y1="112.542" y2="112.542" fill="none" stroke="#BCA35C" stroke-linecap="round" stroke-linejoin="round" stroke-miterlimit="10" stroke-width="2.782" class="spark spark-topright spark-topright-1"/><line x1="330.195" x2="321.628" y1="190.245" y2="190.245" fill="none" stroke="#FDE889" stroke-linecap="round" stroke-linejoin="round" stroke-miterlimit="10" stroke-width="2.782" class="spark spark-bottomright spark-bottomright-2"/><line x1="325.913" x2="325.913" y1="194.529" y2="185.96" fill="none" stroke="#FDE889" stroke-linecap="round" stroke-linejoin="round" stroke-miterlimit="10" stroke-width="2.782" class="spark spark-bottomright spark-bottomright-2"/><line x1="327.546" x2="314.695" y1="217.445" y2="217.445" fill="none" stroke="#FDE889" stroke-linecap="round" stroke-linejoin="round" stroke-miterlimit="10" stroke-width="2.782" class="spark spark-bottomright spark-bottomright-2"/><line x1="321.12" x2="321.12" y1="223.871" y2="211.021" fill="none" stroke="#FDE889" stroke-linecap="round" stroke-linejoin="round" stroke-miterlimit="10" stroke-width="2.782" class="spark spark-bottomright spark-bottomright-2"/><line x1="301.002" x2="294.578" y1="199.53" y2="199.53" fill="none" stroke="#FDE889" stroke-linecap="round" stroke-linejoin="round" stroke-miterlimit="10" stroke-width="2.782" class="spark spark-bottomright spark-bottomright-1"/><line x1="297.791" x2="297.791" y1="202.745" y2="196.319" fill="none" stroke="#FDE889" stroke-linecap="round" stroke-linejoin="round" stroke-miterlimit="10" stroke-width="2.782" class="spark spark-bottomright spark-bottomright-1"/><line x1="87.682" x2="87.682" y1="105.33" y2="91.068" fill="none" stroke="#E0D7B1" stroke-linecap="round" stroke-linejoin="round" stroke-miterlimit="10" stroke-width="2.782" class="spark spark-topleft spark-topleft-3"/><line x1="80.552" x2="94.813" y1="98.2" y2="98.2" fill="none" stroke="#E0D7B1" stroke-linecap="round" stroke-linejoin="round" stroke-miterlimit="10" stroke-width="2.782" class="spark spark-topleft spark-topleft-3"/><line x1="42.404" x2="42.404" y1="100.919" y2="79.527" fill="none" stroke="#E0D7B1" stroke-linecap="round" stroke-linejoin="round" stroke-miterlimit="10" stroke-width="2.782" class="spark spark-topleft spark-topleft-2"/><line x1="31.708" x2="53.1" y1="90.223" y2="90.223" fill="none" stroke="#E0D7B1" stroke-linecap="round" stroke-linejoin="round" stroke-miterlimit="10" stroke-width="2.782" class="spark spark-topleft spark-topleft-2"/><line x1="72.225" x2="72.225" y1="56.738" y2="46.043" fill="none" stroke="#E0D7B1" stroke-linecap="round" stroke-linejoin="round" stroke-miterlimit="10" stroke-width="2.782" class="spark spark-topleft spark-topleft-1"/><line x1="66.875" x2="77.571" y1="51.39" y2="51.39" fill="none" stroke="#E0D7B1" stroke-linecap="round" stroke-linejoin="round" stroke-miterlimit="10" stroke-width="2.782" class="spark spark-topleft spark-topleft-1"/></g><g><line x1="181.254" x2="181.254" y1="76.475" y2="24.108" fill="none" stroke="#FED52A" stroke-linecap="round" stroke-linejoin="round" stroke-miterlimit="10" stroke-width="4.174" class="bar bar-1"/><line x1="155.112" x2="136.309" y1="82.379" y2="44.083" fill="none" stroke="#FED52A" stroke-linecap="round" stroke-linejoin="round" stroke-miterlimit="10" stroke-width="4.174" class="bar bar-2"/><line x1="208.841" x2="227.645" y1="82.379" y2="44.083" fill="none" stroke="#FED52A" stroke-linecap="round" stroke-linejoin="round" stroke-miterlimit="10" stroke-width="4.174" class="bar bar-3"/></g></g></svg>