<svg xmlns="http://www.w3.org/2000/svg" xmlns:xlink="http://www.w3.org/1999/xlink" id="Calque_1" x="0" y="0" version="1.1" viewBox="0 0 6.3 71.3" xml:space="preserve" style="enable-background:new 0 0 6.3 71.3"><style type="text/css">.st0{fill:#f9c20f}.st1{fill:#141717}.st2{fill:#f9f8f4}.st3{fill:#efeae1}.st4{fill:#111415}</style><path id="XMLID_20_" d="M0,67.4c0,2.1,1.4,3.9,3.1,3.9h0c1.7,0,3.1-1.7,3.1-3.9V7.2L0,7.2L0,67.4" class="st0"/><path id="XMLID_55_" d="M6.3,63v5.2c0,1.7-1.4,3.1-3.1,3.1h0c-1.7,0-3.1-1.4-3.1-3.1L0,63c0-0.7,0.6-1.3,1.3-1.3H5	C5.7,61.7,6.3,62.3,6.3,63z" class="st1"/><rect id="XMLID_56_" width="6.3" height="2.7" x="0" y="61.7" class="st2"/><path id="XMLID_57_" d="M6,7.6c0.4,0,0.3-0.5,0.2-0.8L3.4,0.2C3.3-0.1,3-0.1,2.8,0.2L0.1,6.8C-0.1,7-0.1,7.6,0.3,7.6	S5.6,7.6,6,7.6z" class="st3"/><path id="XMLID_22_" d="M2.3,1.4H4L3.4,0.2C3.3-0.1,3-0.1,2.8,0.2L2.3,1.4z" class="st4"/></svg>