<svg xmlns="http://www.w3.org/2000/svg" xmlns:xlink="http://www.w3.org/1999/xlink" id="Calque_1" x="0" y="0" version="1.1" viewBox="0 0 28.6 28.6" xml:space="preserve" style="enable-background:new 0 0 28.6 28.6"><style type="text/css">.st0{fill:#fff198}.st1{opacity:.35;fill:none;stroke:#9b9284;stroke-width:.75;stroke-miterlimit:10}.st2{fill:#ead25e}</style><path id="XMLID_59_" d="M25.6,28.6H3c-1.6,0-3-1.3-3-3V3c0-1.6,1.3-3,3-3h22.6c1.6,0,3,1.3,3,3v22.6	C28.6,27.2,27.2,28.6,25.6,28.6z" class="st0"/><line id="XMLID_62_" x1="3.4" x2="25.2" y1="6.6" y2="6.6" class="st1"/><line id="XMLID_66_" x1="3.4" x2="25.2" y1="16.6" y2="16.6" class="st1"/><line id="XMLID_68_" x1="3.4" x2="25.2" y1="21.6" y2="21.6" class="st1"/><line id="XMLID_69_" x1="3.4" x2="25.2" y1="11.6" y2="11.6" class="st1"/><path id="XMLID_65_" d="M24.4,20.4c-1.9,0-3.5,1.6-3.5,3.5v4.7l7.7-8.2H24.4z" class="st2"/></svg>